<svg width="198" height="197" viewBox="0 0 198 197" fill="none" xmlns="http://www.w3.org/2000/svg">
<g filter="url(#filter0_d_2_2915)">
<g clip-path="url(#clip0_2_2915)">
<path d="M87.9258 28.41C87.9258 25.0963 90.6121 22.41 93.9258 22.41H153.926C157.239 22.41 159.926 25.0963 159.926 28.41V118.41C159.926 121.724 157.239 124.41 153.926 124.41H93.9258C90.6121 124.41 87.9258 121.724 87.9258 118.41V28.41Z" fill="url(#paint0_linear_2_2915)"/>
<rect x="147.271" y="16.227" width="16" height="122.489" transform="rotate(29.6503 147.271 16.227)" fill="white" fill-opacity="0.3"/>
</g>
<path d="M93.9258 23.41H153.926C156.687 23.41 158.926 25.6486 158.926 28.41V118.41C158.926 121.171 156.687 123.41 153.926 123.41H93.9258C91.1644 123.41 88.9258 121.171 88.9258 118.41V28.41L88.9326 28.1532C89.0663 25.5111 91.2505 23.41 93.9258 23.41Z" stroke="#FAFAFA" stroke-width="2"/>
</g>
<g filter="url(#filter1_d_2_2915)">
<g clip-path="url(#clip1_2_2915)">
<path d="M38.3859 43.9686C37.219 40.8671 38.7874 37.407 41.8889 36.2402L98.0461 15.1127C101.148 13.9459 104.608 15.5142 105.775 18.6157L137.466 102.852C138.632 105.953 137.064 109.413 133.963 110.58L77.8055 131.707C74.704 132.874 71.2438 131.306 70.077 128.204L38.3859 43.9686Z" fill="url(#paint1_linear_2_2915)"/>
<rect x="89.6406" y="11.669" width="16" height="122.489" transform="rotate(9.033 89.6406 11.669)" fill="white" fill-opacity="0.3"/>
</g>
<path d="M42.241 37.1761L98.3982 16.0487C100.983 15.0763 103.866 16.3833 104.839 18.9678L136.53 103.204C137.502 105.788 136.195 108.672 133.611 109.644L77.4533 130.771C74.8688 131.744 71.9853 130.437 71.013 127.852L39.3218 43.6165L39.2378 43.3737C38.4326 40.8538 39.737 38.1181 42.241 37.1761Z" stroke="#FAFAFA" stroke-width="2"/>
</g>
<defs>
<filter id="filter0_d_2_2915" x="49.9258" y="9.41003" width="148" height="178" filterUnits="userSpaceOnUse" color-interpolation-filters="sRGB">
<feFlood flood-opacity="0" result="BackgroundImageFix"/>
<feColorMatrix in="SourceAlpha" type="matrix" values="0 0 0 0 0 0 0 0 0 0 0 0 0 0 0 0 0 0 127 0" result="hardAlpha"/>
<feMorphology radius="12" operator="erode" in="SourceAlpha" result="effect1_dropShadow_2_2915"/>
<feOffset dy="25"/>
<feGaussianBlur stdDeviation="25"/>
<feComposite in2="hardAlpha" operator="out"/>
<feColorMatrix type="matrix" values="0 0 0 0 0 0 0 0 0 0 0 0 0 0 0 0 0 0 0.1 0"/>
<feBlend mode="normal" in2="BackgroundImageFix" result="effect1_dropShadow_2_2915"/>
<feBlend mode="normal" in="SourceGraphic" in2="effect1_dropShadow_2_2915" result="shape"/>
</filter>
<filter id="filter1_d_2_2915" x="-1.72687" y="0" width="179.305" height="196.82" filterUnits="userSpaceOnUse" color-interpolation-filters="sRGB">
<feFlood flood-opacity="0" result="BackgroundImageFix"/>
<feColorMatrix in="SourceAlpha" type="matrix" values="0 0 0 0 0 0 0 0 0 0 0 0 0 0 0 0 0 0 127 0" result="hardAlpha"/>
<feMorphology radius="12" operator="erode" in="SourceAlpha" result="effect1_dropShadow_2_2915"/>
<feOffset dy="25"/>
<feGaussianBlur stdDeviation="25"/>
<feComposite in2="hardAlpha" operator="out"/>
<feColorMatrix type="matrix" values="0 0 0 0 0 0 0 0 0 0 0 0 0 0 0 0 0 0 0.1 0"/>
<feBlend mode="normal" in2="BackgroundImageFix" result="effect1_dropShadow_2_2915"/>
<feBlend mode="normal" in="SourceGraphic" in2="effect1_dropShadow_2_2915" result="shape"/>
</filter>
<linearGradient id="paint0_linear_2_2915" x1="123.926" y1="22.41" x2="123.926" y2="124.41" gradientUnits="userSpaceOnUse">
<stop stop-color="#FFE4E6"/>
<stop offset="1" stop-color="#FFCED1"/>
</linearGradient>
<linearGradient id="paint1_linear_2_2915" x1="69.9675" y1="25.6765" x2="105.884" y2="121.144" gradientUnits="userSpaceOnUse">
<stop stop-color="#FEF08A"/>
<stop offset="1" stop-color="#FDE047"/>
</linearGradient>
<clipPath id="clip0_2_2915">
<path d="M87.9258 28.41C87.9258 25.0963 90.6121 22.41 93.9258 22.41H153.926C157.239 22.41 159.926 25.0963 159.926 28.41V118.41C159.926 121.724 157.239 124.41 153.926 124.41H93.9258C90.6121 124.41 87.9258 121.724 87.9258 118.41V28.41Z" fill="white"/>
</clipPath>
<clipPath id="clip1_2_2915">
<path d="M38.3859 43.9686C37.219 40.8671 38.7874 37.407 41.8889 36.2402L98.0461 15.1127C101.148 13.9459 104.608 15.5142 105.775 18.6157L137.466 102.852C138.632 105.953 137.064 109.413 133.963 110.58L77.8055 131.707C74.704 132.874 71.2438 131.306 70.077 128.204L38.3859 43.9686Z" fill="white"/>
</clipPath>
</defs>
</svg>
